<?xml version="1.0" encoding="UTF-8" standalone="no"?>
<!-- Created with Inkscape (http://www.inkscape.org/) -->

<svg
   width="256"
   height="256"
   viewBox="0 0 67.733334 67.733334"
   version="1.1"
   id="svg1"
   xml:space="preserve"
   xmlns="http://www.w3.org/2000/svg"
   xmlns:svg="http://www.w3.org/2000/svg"><defs
     id="defs1" /><g
     id="layer1"><path
       style="fill:#ffffff;fill-opacity:1;stroke:#111111;stroke-width:1.00744"
       d="M 4.8904721,62.386313 C 4.1617894,62.126725 4.0809624,61.987175 3.5093903,61.190731 0.41464338,56.925096 0.49207701,51.373556 0.5042921,46.326381 0.50478355,38.568722 8.3640205,8.7534835 38.354716,5.0346356 58.490465,3.6401871 68.221285,10.136189 67.142345,17.538731 c -1.07894,7.402542 -13.89541,8.754396 -21.322949,9.067894 -0.46428,0.02055 -1.218431,0.03808 -1.335636,0.612696 -0.162716,0.797684 -0.457765,4.046429 5.332691,4.668989 6.291261,0.676389 13.442188,4.687411 11.532711,7.789077 C 49.0827,36.928597 39.529461,34.788547 27.426047,39.799618 15.843959,44.518558 6.7615797,56.044725 5.6308804,60.720275 5.4591519,61.430391 5.4835924,62.253944 4.8904711,62.386282 4.2961923,62.518912 3.5093903,61.190731 3.5093903,61.190731 M 37.021941,26.278077 c 2.910124,0.48029 5.861571,0.344535 8.797456,0.32858 m 1.590392,4.778549 c 0,0 -4.597473,0.07994 -6.894815,0.01441 -3.648848,-0.104081 -10.931862,-0.64708 -10.931862,-0.64708"
       id="path1" /></g></svg>
