<svg width="36" height="36" viewBox="0 0 36 36" fill="none" xmlns="http://www.w3.org/2000/svg">
<rect width="36" height="36" rx="6" fill="#121212"/>
<rect width="36" height="36" rx="6" fill="white" fill-opacity="0.09"/>
<path fill-rule="evenodd" clip-rule="evenodd" d="M20.5858 9.58579C20.9609 9.21071 21.4696 9 22 9H26C26.5304 9 27.0391 9.21071 27.4142 9.58579C27.7893 9.96086 28 10.4696 28 11V25C28 25.5304 27.7893 26.0391 27.4142 26.4142C27.0391 26.7893 26.5304 27 26 27H10C9.46957 27 8.96086 26.7893 8.58579 26.4142C8.21071 26.0391 8 25.5304 8 25V19C8 18.4696 8.21071 17.9609 8.58579 17.5858C8.96086 17.2107 9.46957 17 10 17H14V15C14 14.4696 14.2107 13.9609 14.5858 13.5858C14.9609 13.2107 15.4696 13 16 13H20V11C20 10.4696 20.2107 9.96086 20.5858 9.58579ZM22 25H26V11L22 11V25ZM20 15H16V25H20V15ZM14 19H10V25H14V19Z" fill="white"/>
</svg>
